  0
SECTION
  2
HEADER
  0
ENDSEC
  0
SECTION
  2
TABLES
  0
TABLE
  2
LTYPE
 70
     1
 0
LTYPE
  2
CONTINUOUS
 70
    64
  3
Solid line
 72
    65
 73
     0
 40
0.0
  0
ENDTAB
  0
TABLE
  2
LAYER
 70
     2
 0
LAYER
  2
Metal1
 70
     0
 62
     7
  6
CONTINUOUS
  0
ENDTAB
  0
ENDSEC
  0
SECTION
  2
BLOCKS
  0
ENDSEC
  0
SECTION
  2
ENTITIES
  0
POLYLINE
  8
Metal1
 66
     1
 10
0.0
 20
0.0
 30
0.0
 70
     1
  0
VERTEX
  8
Metal1
 10
20.296369
 20
65.048794
 30
0.0
  0
VERTEX
  8
Metal1
 10
44.296369
 20
65.048794
 30
0.0
  0
VERTEX
  8
Metal1
 10
44.296369
 20
64.448794
 30
0.0
  0
VERTEX
  8
Metal1
 10
20.296369
 20
64.448794
 30
0.0
  0
SEQEND
  0
POLYLINE
  8
Metal1
 66
     1
 10
0.0
 20
0.0
 30
0.0
 70
     1
  0
VERTEX
  8
Metal1
 10
-0.000514
 20
66.398620
 30
0.0
  0
VERTEX
  8
Metal1
 10
20.295319
 20
66.398620
 30
0.0
  0
VERTEX
  8
Metal1
 10
20.295319
 20
63.598620
 30
0.0
  0
VERTEX
  8
Metal1
 10
-0.000514
 20
63.598620
 30
0.0
  0
SEQEND
  0
POLYLINE
  8
Metal1
 66
     1
 10
0.0
 20
0.0
 30
0.0
 70
     1
  0
VERTEX
  8
Metal1
 10
146.804680
 20
66.599274
 30
0.0
  0
VERTEX
  8
Metal1
 10
167.100514
 20
66.599274
 30
0.0
  0
VERTEX
  8
Metal1
 10
167.100514
 20
63.799274
 30
0.0
  0
VERTEX
  8
Metal1
 10
146.804680
 20
63.799274
 30
0.0
  0
SEQEND
  0
POLYLINE
  8
Metal1
 66
     1
 10
0.0
 20
0.0
 30
0.0
 70
     1
  0
VERTEX
  8
Metal1
 10
122.797171
 20
65.463902
 30
0.0
  0
VERTEX
  8
Metal1
 10
146.797171
 20
65.463902
 30
0.0
  0
VERTEX
  8
Metal1
 10
146.797171
 20
64.863902
 30
0.0
  0
VERTEX
  8
Metal1
 10
122.797171
 20
64.863902
 30
0.0
  0
SEQEND
  0
POLYLINE
  8
Metal1
 66
     1
 10
0.0
 20
0.0
 30
0.0
 70
     1
  0
VERTEX
  8
Metal1
 10
44.287012
 20
68.763902
 30
0.0
  0
VERTEX
  8
Metal1
 10
49.087012
 20
68.763902
 30
0.0
  0
VERTEX
  8
Metal1
 10
49.087012
 20
60.863902
 30
0.0
  0
VERTEX
  8
Metal1
 10
44.287012
 20
60.863902
 30
0.0
  0
SEQEND
  0
POLYLINE
  8
Metal1
 66
     1
 10
0.0
 20
0.0
 30
0.0
 70
     1
  0
VERTEX
  8
Metal1
 10
117.984021
 20
68.877803
 30
0.0
  0
VERTEX
  8
Metal1
 10
122.784021
 20
68.877803
 30
0.0
  0
VERTEX
  8
Metal1
 10
122.784021
 20
60.977803
 30
0.0
  0
VERTEX
  8
Metal1
 10
117.984021
 20
60.977803
 30
0.0
  0
SEQEND
  0
POLYLINE
  8
Metal1
 66
     1
 10
0.0
 20
0.0
 30
0.0
 70
     1
  0
VERTEX
  8
Metal1
 10
49.087012
 20
65.163902
 30
0.0
  0
VERTEX
  8
Metal1
 10
80.987012
 20
65.163902
 30
0.0
  0
VERTEX
  8
Metal1
 10
80.987012
 20
64.563902
 30
0.0
  0
VERTEX
  8
Metal1
 10
49.087012
 20
64.563902
 30
0.0
  0
SEQEND
  0
POLYLINE
  8
Metal1
 66
     1
 10
0.0
 20
0.0
 30
0.0
 70
     1
  0
VERTEX
  8
Metal1
 10
86.097923
 20
65.177803
 30
0.0
  0
VERTEX
  8
Metal1
 10
117.997923
 20
65.177803
 30
0.0
  0
VERTEX
  8
Metal1
 10
117.997923
 20
64.577803
 30
0.0
  0
VERTEX
  8
Metal1
 10
86.097923
 20
64.577803
 30
0.0
  0
SEQEND
  0
POLYLINE
  8
Metal1
 66
     1
 10
0.0
 20
0.0
 30
0.0
 70
     1
  0
VERTEX
  8
Metal1
 10
80.967431
 20
69.136098
 30
0.0
  0
VERTEX
  8
Metal1
 10
86.067431
 20
69.136098
 30
0.0
  0
VERTEX
  8
Metal1
 10
86.067431
 20
61.236098
 30
0.0
  0
VERTEX
  8
Metal1
 10
80.967431
 20
61.236098
 30
0.0
  0
SEQEND
  0
ENDSEC
  0
EOF
