  0
SECTION
  2
HEADER
  0
ENDSEC
  0
SECTION
  2
TABLES
  0
TABLE
  2
LTYPE
 70
     1
 0
LTYPE
  2
CONTINUOUS
 70
    64
  3
Solid line
 72
    65
 73
     0
 40
0.0
  0
ENDTAB
  0
TABLE
  2
LAYER
 70
     2
 0
LAYER
  2
Metal1
 70
     0
 62
     7
  6
CONTINUOUS
  0
ENDTAB
  0
ENDSEC
  0
SECTION
  2
BLOCKS
  0
ENDSEC
  0
SECTION
  2
ENTITIES
  0
POLYLINE
  8
Metal1
 66
     1
 10
0.0
 20
0.0
 30
0.0
 70
     1
  0
VERTEX
  8
Metal1
 10
0.016318
 20
66.398620
 30
0.0
  0
VERTEX
  8
Metal1
 10
7.838095
 20
66.398620
 30
0.0
  0
VERTEX
  8
Metal1
 10
7.838095
 20
63.598620
 30
0.0
  0
VERTEX
  8
Metal1
 10
0.016318
 20
63.598620
 30
0.0
  0
SEQEND
  0
POLYLINE
  8
Metal1
 66
     1
 10
0.0
 20
0.0
 30
0.0
 70
     1
  0
VERTEX
  8
Metal1
 10
105.526797
 20
68.877803
 30
0.0
  0
VERTEX
  8
Metal1
 10
110.326797
 20
68.877803
 30
0.0
  0
VERTEX
  8
Metal1
 10
110.326797
 20
60.977803
 30
0.0
  0
VERTEX
  8
Metal1
 10
105.526797
 20
60.977803
 30
0.0
  0
SEQEND
  0
POLYLINE
  8
Metal1
 66
     1
 10
0.0
 20
0.0
 30
0.0
 70
     1
  0
VERTEX
  8
Metal1
 10
7.839144
 20
65.048794
 30
0.0
  0
VERTEX
  8
Metal1
 10
31.839144
 20
65.048794
 30
0.0
  0
VERTEX
  8
Metal1
 10
31.839144
 20
64.448794
 30
0.0
  0
VERTEX
  8
Metal1
 10
7.839144
 20
64.448794
 30
0.0
  0
SEQEND
  0
POLYLINE
  8
Metal1
 66
     1
 10
0.0
 20
0.0
 30
0.0
 70
     1
  0
VERTEX
  8
Metal1
 10
73.640699
 20
65.177803
 30
0.0
  0
VERTEX
  8
Metal1
 10
105.540699
 20
65.177803
 30
0.0
  0
VERTEX
  8
Metal1
 10
105.540699
 20
64.577803
 30
0.0
  0
VERTEX
  8
Metal1
 10
73.640699
 20
64.577803
 30
0.0
  0
SEQEND
  0
POLYLINE
  8
Metal1
 66
     1
 10
0.0
 20
0.0
 30
0.0
 70
     1
  0
VERTEX
  8
Metal1
 10
110.339946
 20
65.463902
 30
0.0
  0
VERTEX
  8
Metal1
 10
134.339946
 20
65.463902
 30
0.0
  0
VERTEX
  8
Metal1
 10
134.339946
 20
64.863902
 30
0.0
  0
VERTEX
  8
Metal1
 10
110.339946
 20
64.863902
 30
0.0
  0
SEQEND
  0
POLYLINE
  8
Metal1
 66
     1
 10
0.0
 20
0.0
 30
0.0
 70
     1
  0
VERTEX
  8
Metal1
 10
31.829788
 20
68.763902
 30
0.0
  0
VERTEX
  8
Metal1
 10
36.629788
 20
68.763902
 30
0.0
  0
VERTEX
  8
Metal1
 10
36.629788
 20
60.863902
 30
0.0
  0
VERTEX
  8
Metal1
 10
31.829788
 20
60.863902
 30
0.0
  0
SEQEND
  0
POLYLINE
  8
Metal1
 66
     1
 10
0.0
 20
0.0
 30
0.0
 70
     1
  0
VERTEX
  8
Metal1
 10
68.510206
 20
69.136098
 30
0.0
  0
VERTEX
  8
Metal1
 10
73.610206
 20
69.136098
 30
0.0
  0
VERTEX
  8
Metal1
 10
73.610206
 20
61.236098
 30
0.0
  0
VERTEX
  8
Metal1
 10
68.510206
 20
61.236098
 30
0.0
  0
SEQEND
  0
POLYLINE
  8
Metal1
 66
     1
 10
0.0
 20
0.0
 30
0.0
 70
     1
  0
VERTEX
  8
Metal1
 10
36.629788
 20
65.163902
 30
0.0
  0
VERTEX
  8
Metal1
 10
68.529788
 20
65.163902
 30
0.0
  0
VERTEX
  8
Metal1
 10
68.529788
 20
64.563902
 30
0.0
  0
VERTEX
  8
Metal1
 10
36.629788
 20
64.563902
 30
0.0
  0
SEQEND
  0
POLYLINE
  8
Metal1
 66
     1
 10
0.0
 20
0.0
 30
0.0
 70
     1
  0
VERTEX
  8
Metal1
 10
134.361905
 20
66.298620
 30
0.0
  0
VERTEX
  8
Metal1
 10
142.183682
 20
66.298620
 30
0.0
  0
VERTEX
  8
Metal1
 10
142.183682
 20
63.498620
 30
0.0
  0
VERTEX
  8
Metal1
 10
134.361905
 20
63.498620
 30
0.0
  0
SEQEND
  0
ENDSEC
  0
EOF
