  0
SECTION
  2
HEADER
  0
ENDSEC
  0
SECTION
  2
TABLES
  0
TABLE
  2
LTYPE
 70
     1
 0
LTYPE
  2
CONTINUOUS
 70
    64
  3
Solid line
 72
    65
 73
     0
 40
0.0
  0
ENDTAB
  0
TABLE
  2
LAYER
 70
     2
 0
LAYER
  2
Metal1
 70
     0
 62
     7
  6
CONTINUOUS
  0
ENDTAB
  0
ENDSEC
  0
SECTION
  2
BLOCKS
  0
ENDSEC
  0
SECTION
  2
ENTITIES
  0
POLYLINE
  8
Metal1
 66
     1
 10
0.0
 20
0.0
 30
0.0
 70
     1
  0
VERTEX
  8
Metal1
 10
120.000000
 20
40.017780
 30
0.0
  0
VERTEX
  8
Metal1
 10
120.254000
 20
40.017780
 30
0.0
  0
VERTEX
  8
Metal1
 10
120.254000
 20
40.000000
 30
0.0
  0
VERTEX
  8
Metal1
 10
120.000000
 20
40.000000
 30
0.0
  0
SEQEND
  0
POLYLINE
  8
Metal1
 66
     1
 10
0.0
 20
0.0
 30
0.0
 70
     1
  0
VERTEX
  8
Metal1
 10
77.973000
 20
37.942780
 30
0.0
  0
VERTEX
  8
Metal1
 10
78.227000
 20
37.942780
 30
0.0
  0
VERTEX
  8
Metal1
 10
78.227000
 20
37.925000
 30
0.0
  0
VERTEX
  8
Metal1
 10
77.973000
 20
37.925000
 30
0.0
  0
SEQEND
  0
POLYLINE
  8
Metal1
 66
     1
 10
0.0
 20
0.0
 30
0.0
 70
     1
  0
VERTEX
  8
Metal1
 10
80.000000
 20
10.017780
 30
0.0
  0
VERTEX
  8
Metal1
 10
80.254000
 20
10.017780
 30
0.0
  0
VERTEX
  8
Metal1
 10
80.254000
 20
10.000000
 30
0.0
  0
VERTEX
  8
Metal1
 10
80.000000
 20
10.000000
 30
0.0
  0
SEQEND
  0
POLYLINE
  8
Metal1
 66
     1
 10
0.0
 20
0.0
 30
0.0
 70
     1
  0
VERTEX
  8
Metal1
 10
19.200000
 20
54.150000
 30
0.0
  0
VERTEX
  8
Metal1
 10
28.600000
 20
54.150000
 30
0.0
  0
VERTEX
  8
Metal1
 10
28.600000
 20
45.850000
 30
0.0
  0
VERTEX
  8
Metal1
 10
19.200000
 20
45.850000
 30
0.0
  0
SEQEND
  0
POLYLINE
  8
Metal1
 66
     1
 10
0.0
 20
0.0
 30
0.0
 70
     1
  0
VERTEX
  8
Metal1
 10
4.550000
 20
54.150000
 30
0.0
  0
VERTEX
  8
Metal1
 10
10.250000
 20
54.150000
 30
0.0
  0
VERTEX
  8
Metal1
 10
10.250000
 20
45.850000
 30
0.0
  0
VERTEX
  8
Metal1
 10
4.550000
 20
45.850000
 30
0.0
  0
SEQEND
  0
POLYLINE
  8
Metal1
 66
     1
 10
0.0
 20
0.0
 30
0.0
 70
     1
  0
VERTEX
  8
Metal1
 10
58.450000
 20
50.350000
 30
0.0
  0
VERTEX
  8
Metal1
 10
49.450000
 20
50.350000
 30
0.0
  0
VERTEX
  8
Metal1
 10
49.450000
 20
49.650000
 30
0.0
  0
VERTEX
  8
Metal1
 10
58.450000
 20
49.650000
 30
0.0
  0
SEQEND
  0
POLYLINE
  8
Metal1
 66
     1
 10
0.0
 20
0.0
 30
0.0
 70
     1
  0
VERTEX
  8
Metal1
 10
0.000000
 20
51.550000
 30
0.0
  0
VERTEX
  8
Metal1
 10
2.100000
 20
51.550000
 30
0.0
  0
VERTEX
  8
Metal1
 10
2.100000
 20
48.450000
 30
0.0
  0
VERTEX
  8
Metal1
 10
0.000000
 20
48.450000
 30
0.0
  0
SEQEND
  0
POLYLINE
  8
Metal1
 66
     1
 10
0.0
 20
0.0
 30
0.0
 70
     1
  0
VERTEX
  8
Metal1
 10
10.200000
 20
50.350000
 30
0.0
  0
VERTEX
  8
Metal1
 10
19.200000
 20
50.350000
 30
0.0
  0
VERTEX
  8
Metal1
 10
19.200000
 20
49.650000
 30
0.0
  0
VERTEX
  8
Metal1
 10
10.200000
 20
49.650000
 30
0.0
  0
SEQEND
  0
POLYLINE
  8
Metal1
 66
     1
 10
0.0
 20
0.0
 30
0.0
 70
     1
  0
VERTEX
  8
Metal1
 10
66.500000
 20
51.550000
 30
0.0
  0
VERTEX
  8
Metal1
 10
68.500000
 20
51.550000
 30
0.0
  0
VERTEX
  8
Metal1
 10
68.500000
 20
48.450000
 30
0.0
  0
VERTEX
  8
Metal1
 10
66.500000
 20
48.450000
 30
0.0
  0
SEQEND
  0
POLYLINE
  8
Metal1
 66
     1
 10
0.0
 20
0.0
 30
0.0
 70
     1
  0
VERTEX
  8
Metal1
 10
2.100000
 20
50.350000
 30
0.0
  0
VERTEX
  8
Metal1
 10
4.500000
 20
50.350000
 30
0.0
  0
VERTEX
  8
Metal1
 10
4.500000
 20
49.650000
 30
0.0
  0
VERTEX
  8
Metal1
 10
2.100000
 20
49.650000
 30
0.0
  0
SEQEND
  0
POLYLINE
  8
Metal1
 66
     1
 10
0.0
 20
0.0
 30
0.0
 70
     1
  0
VERTEX
  8
Metal1
 10
49.450000
 20
54.150000
 30
0.0
  0
VERTEX
  8
Metal1
 10
40.050000
 20
54.150000
 30
0.0
  0
VERTEX
  8
Metal1
 10
40.050000
 20
45.850000
 30
0.0
  0
VERTEX
  8
Metal1
 10
49.450000
 20
45.850000
 30
0.0
  0
SEQEND
  0
POLYLINE
  8
Metal1
 66
     1
 10
0.0
 20
0.0
 30
0.0
 70
     1
  0
VERTEX
  8
Metal1
 10
28.550000
 20
50.350000
 30
0.0
  0
VERTEX
  8
Metal1
 10
40.050000
 20
50.350000
 30
0.0
  0
VERTEX
  8
Metal1
 10
40.050000
 20
49.650000
 30
0.0
  0
VERTEX
  8
Metal1
 10
28.550000
 20
49.650000
 30
0.0
  0
SEQEND
  0
POLYLINE
  8
Metal1
 66
     1
 10
0.0
 20
0.0
 30
0.0
 70
     1
  0
VERTEX
  8
Metal1
 10
64.100000
 20
54.150000
 30
0.0
  0
VERTEX
  8
Metal1
 10
58.400000
 20
54.150000
 30
0.0
  0
VERTEX
  8
Metal1
 10
58.400000
 20
45.850000
 30
0.0
  0
VERTEX
  8
Metal1
 10
64.100000
 20
45.850000
 30
0.0
  0
SEQEND
  0
POLYLINE
  8
Metal1
 66
     1
 10
0.0
 20
0.0
 30
0.0
 70
     1
  0
VERTEX
  8
Metal1
 10
66.550000
 20
50.350000
 30
0.0
  0
VERTEX
  8
Metal1
 10
64.150000
 20
50.350000
 30
0.0
  0
VERTEX
  8
Metal1
 10
64.150000
 20
49.650000
 30
0.0
  0
VERTEX
  8
Metal1
 10
66.550000
 20
49.650000
 30
0.0
  0
SEQEND
  0
ENDSEC
  0
EOF
